<?xml version="1.0" standalone="no"?>
<!DOCTYPE svg PUBLIC "-//W3C//DTD SVG 20010904//EN"
 "http://www.w3.org/TR/2001/REC-SVG-20010904/DTD/svg10.dtd">
<svg version="1.0" xmlns="http://www.w3.org/2000/svg"
 width="1716.000000pt" height="2000.000000pt" viewBox="0 0 1716.000000 2000.000000"
 preserveAspectRatio="xMidYMid meet">

<g transform="translate(0.000000,2000.000000) scale(0.100000,-0.100000)"
fill="#000000" stroke="none">
<path d="M8215 19989 c-1605 -102 -3098 -882 -4103 -2142 -159 -199 -344 -467
-455 -659 l-28 -48 -1809 0 -1810 0 0 -8570 0 -8570 8570 0 8570 0 0 8570 0
8570 -1809 0 -1809 0 -53 88 c-242 405 -557 802 -910 1147 -1158 1131 -2739
1717 -4354 1614z m760 -2873 c946 -143 1728 -703 2156 -1544 181 -355 278
-731 305 -1174 l6 -108 1424 0 1424 0 0 -5715 0 -5715 -5710 0 -5710 0 0 5715
0 5715 1424 0 1424 0 6 108 c21 351 81 636 196 930 318 813 1012 1451 1845
1696 147 43 328 81 455 95 52 6 109 13 125 15 71 10 535 -3 630 -18z"/>
<path d="M11325 12853 c-626 -52 -1146 -510 -1287 -1131 -21 -95 -22 -113 -25
-910 l-4 -813 808 4 c790 3 810 4 905 25 290 66 517 191 723 397 213 213 344
463 402 766 16 85 17 168 18 879 l0 785 -750 1 c-412 0 -768 -1 -790 -3z"/>
<path d="M4290 7145 l0 -2855 1430 0 1430 0 0 1427 0 1426 148 -6 c397 -18
744 -108 1117 -292 275 -135 496 -290 716 -502 393 -379 657 -833 789 -1358
46 -182 67 -318 82 -532 l12 -163 1427 0 1428 0 -5 148 c-46 1328 -493 2506
-1340 3527 -138 167 -521 550 -689 689 -972 809 -2101 1259 -3350 1336 -93 6
-791 10 -1677 10 l-1518 0 0 -2855z"/>
</g>
</svg>
